<svg xmlns="http://www.w3.org/2000/svg" viewBox="0 0 234.98 291.57"><defs><style>.cls-1,.cls-2,.cls-3{fill-rule:evenodd;}.cls-2{fill:#fff;}.cls-3{fill:red;}</style></defs><g id="Capa_2" data-name="Capa 2"><g id="Layer_1" data-name="Layer 1"><polygon class="cls-1" points="0 43.11 3.24 39.9 4.47 38.69 5.7 37.47 6.92 36.26 8.15 35.04 10.6 32.61 11.83 31.4 13.06 30.18 15.51 27.76 16.73 26.54 17.96 25.33 20.41 22.9 21.64 21.68 22.87 20.47 24.09 19.25 25.32 18.04 26.55 16.83 27.77 15.61 30.23 13.18 31.45 11.97 32.68 10.75 35.13 8.33 36.36 7.11 37.59 5.9 40.04 3.47 43.54 0 48.77 2.88 51.4 4.08 54.41 5.23 57.75 6.33 61.4 7.35 65.34 8.3 69.53 9.17 73.95 9.96 78.58 10.66 83.39 11.28 88.36 11.82 93.46 12.26 98.67 12.62 103.97 12.89 109.34 13.06 114.75 13.15 120.18 13.14 125.6 13.04 131 12.84 136.34 12.55 141.62 12.17 146.8 11.69 151.86 11.11 156.78 10.44 161.53 9.67 166.09 8.81 170.44 7.85 174.55 6.8 178.39 5.66 181.94 4.43 185.18 3.13 190.9 0.39 194.28 3.66 195.52 4.86 196.76 6.06 198.01 7.26 199.25 8.46 201.73 10.85 202.97 12.05 204.22 13.25 205.46 14.45 206.7 15.65 207.94 16.85 209.18 18.05 211.66 20.45 212.91 21.65 214.15 22.85 215.39 24.05 216.63 25.25 217.87 26.45 219.12 27.65 221.6 30.04 222.84 31.24 224.08 32.44 226.56 34.84 227.81 36.04 229.05 37.24 231.53 39.64 234.98 42.96 232.79 47.29 232.01 48.89 231.25 50.51 230.5 52.13 229.77 53.77 229.06 55.42 228.36 57.09 227.68 58.77 227.02 60.46 226.37 62.16 225.74 63.88 225.13 65.6 224.53 67.34 223.94 69.09 223.38 70.86 222.83 72.63 222.29 74.42 221.77 76.21 221.26 78.02 220.77 79.84 220.29 81.67 219.83 83.51 219.38 85.37 218.94 87.23 218.52 89.1 218.11 90.99 217.72 92.88 217.33 94.79 216.97 96.7 216.61 98.62 216.27 100.56 215.94 102.5 215.85 103.03 215.77 103.56 215.68 104.09 215.61 104.61 215.53 105.14 215.46 105.66 215.39 106.18 215.33 106.7 215.26 107.21 215.2 107.73 215.14 108.25 215.09 108.76 215.04 109.28 214.99 109.79 214.94 110.31 214.89 110.82 214.85 111.34 214.81 111.86 214.77 112.37 214.73 112.89 214.69 113.42 214.66 113.94 214.63 114.46 214.6 114.99 214.57 115.51 214.54 116.04 214.52 116.58 214.5 117.11 214.47 117.65 214.45 118.19 214.43 118.73 214.41 119.3 214.31 122.07 214.16 124.85 213.99 127.63 213.79 130.4 213.56 133.17 213.29 135.93 212.99 138.69 212.66 141.45 212.31 144.2 211.92 146.94 211.5 149.69 211.05 152.42 210.57 155.16 210.06 157.89 209.52 160.61 208.95 163.33 208.35 166.05 207.73 168.76 207.07 171.47 206.39 174.17 205.67 176.87 204.93 179.56 204.16 182.25 203.36 184.94 202.53 187.62 201.68 190.3 200.8 192.97 199.89 195.64 198.95 198.31 197.99 200.97 197 203.62 196.01 206.19 194.91 209.38 193.64 212.7 192.25 216.03 190.75 219.37 189.14 222.7 187.43 226.03 185.61 229.33 183.7 232.63 181.7 235.89 179.6 239.13 177.43 242.33 175.17 245.49 172.83 248.6 170.42 251.66 167.95 254.66 165.4 257.6 162.8 260.47 160.14 263.26 157.42 265.97 154.66 268.59 151.84 271.12 148.99 273.55 146.09 275.88 143.15 278.09 140.19 280.18 137.19 282.16 134.17 284 131.12 285.71 128.05 287.27 124.96 288.69 121.86 289.94 117.21 291.57 112.06 289.24 108.46 287.5 104.91 285.66 101.41 283.72 97.96 281.67 94.55 279.52 91.2 277.26 87.91 274.89 84.67 272.41 81.5 269.82 78.38 267.12 75.33 264.3 72.34 261.37 69.42 258.31 66.57 255.14 63.79 251.85 61.09 248.44 58.46 244.9 55.91 241.24 53.44 237.46 51.05 233.54 48.75 229.5 46.52 225.34 44.39 221.04 42.34 216.6 40.39 212.04 38.52 207.34 36.75 202.5 35.08 197.53 33.5 192.41 32.02 187.16 30.68 181.94 29.95 179.7 29.23 177.36 28.54 175.07 27.9 172.82 27.3 170.61 26.74 168.43 26.22 166.27 25.73 164.15 25.28 162.04 24.86 159.96 24.48 157.89 24.12 155.82 23.79 153.77 23.49 151.71 23.21 149.66 22.96 147.6 22.73 145.53 22.51 143.44 22.32 141.34 22.14 139.22 21.97 137.07 21.81 134.89 21.67 132.67 21.53 130.42 21.4 128.12 21.28 125.78 21.16 123.39 21.04 120.93 20.91 118.42 20.79 115.84 20.66 113.19 20.53 110.47 20.46 109 20.35 107.54 20.21 106.02 20.02 104.44 19.79 102.82 19.52 101.14 19.22 99.42 18.87 97.66 18.49 95.84 18.08 93.99 17.62 92.1 17.13 90.17 16.61 88.2 16.05 86.19 15.46 84.16 14.84 82.08 14.19 79.98 13.51 77.85 12.79 75.69 12.05 73.5 11.28 71.29 10.48 69.06 9.65 66.8 8.8 64.52 7.92 62.23 7.02 59.91 6.09 57.58 5.14 55.23 4.17 52.87 3.17 50.49 2.16 48.11 0 43.11 0 43.11"/><path class="cls-2" d="M5,44.06,44.28,5.2c25.27,15.43,114,16.83,145.78.24L229.8,43.82c-8.88,17.35-14.55,36.93-18.06,58a129.34,129.34,0,0,0-1.58,17.33c-1,29.23-7.3,57.74-18.15,85.63-11.12,33.85-43.51,72.24-74.6,82.28-37.9-16.49-68.7-49-82.64-106.27-8.37-25.28-8.54-41-10-70.52C24.23,94.35,16.27,69.89,5,44.06Z"/><polygon class="cls-1" points="192.99 13.24 219.28 40.32 85.11 263.22 80.65 258.87 78.77 256.96 76.92 254.99 75.09 252.97 73.3 250.89 71.54 248.76 69.8 246.57 68.1 244.33 66.43 242.04 64.79 239.7 63.18 237.32 61.6 234.88 60.05 232.39 58.53 229.86 57.05 227.28 55.6 224.65 54.18 221.98 52.8 219.26 51.44 216.5 50.12 213.7 48.84 210.85 47.59 207.97 46.37 205.04 45.19 202.07 44.04 199.06 42.93 196.01 41.85 192.93 40.81 189.8 39.8 186.64 38.83 183.45 37.9 180.22 36.7 175.83 127.83 24.54 131.21 24.43 133.07 24.36 134.96 24.27 136.88 24.16 138.84 24.04 140.82 23.9 142.82 23.74 144.84 23.57 146.88 23.38 148.93 23.18 150.99 22.96 153.06 22.71 155.14 22.46 157.21 22.18 159.28 21.89 161.35 21.57 163.41 21.24 165.46 20.89 167.49 20.53 169.51 20.14 171.51 19.73 173.48 19.31 175.42 18.86 177.34 18.4 179.22 17.91 181.06 17.41 182.87 16.89 184.63 16.34 186.34 15.78 188.01 15.2 189.62 14.59 192.99 13.24 192.99 13.24"/><path class="cls-3" d="M192.28,16.54l23.47,24.17-131.22,218c-20-19-35.53-47.84-44.78-82.48l89.72-149c19.43-.56,45.83-3.72,62.81-10.74Z"/><polygon class="cls-1" points="102.29 245.51 106.11 239.15 117.58 220.08 121.4 213.72 125.22 207.37 132.87 194.66 136.69 188.3 148.15 169.23 151.98 162.87 155.8 156.51 167.27 137.44 171.09 131.09 182.56 112.02 186.38 105.66 197.84 86.59 201.67 80.23 224.63 42.05 216.74 68.6 215.32 73.51 214.03 78.1 212.87 82.4 211.82 86.43 210.88 90.19 210.04 93.72 209.3 97.02 208.65 100.1 208.08 103 207.59 105.72 207.16 108.28 206.79 110.71 206.49 113.01 206.22 115.2 206.01 117.31 205.82 119.36 205.66 121.35 205.53 123.31 205.41 125.26 205.29 127.21 205.18 129.18 205.07 131.18 204.94 133.24 204.79 135.37 204.63 137.59 204.42 139.9 204.18 142.33 203.89 144.89 203.55 147.6 203.15 150.48 202.69 153.54 202.1 157.04 201.47 160.49 200.8 163.91 200.1 167.29 199.35 170.64 198.57 173.95 197.76 177.22 196.9 180.46 196.01 183.66 195.08 186.83 194.11 189.96 193.1 193.06 192.06 196.12 190.98 199.14 189.86 202.13 188.71 205.07 187.51 207.99 186.28 210.87 185.01 213.71 183.7 216.52 182.35 219.29 180.97 222.02 179.55 224.72 178.09 227.38 176.59 230 175.06 232.59 173.48 235.14 171.88 237.66 170.22 240.13 168.54 242.58 166.81 244.98 165 247.43 163.81 248.76 162.69 250.01 161.56 251.25 160.42 252.49 159.26 253.73 158.09 254.96 156.89 256.18 155.68 257.39 154.46 258.6 153.21 259.8 151.93 260.99 150.64 262.16 149.32 263.33 147.97 264.49 146.6 265.63 145.2 266.76 143.78 267.88 142.32 268.98 140.83 270.06 139.31 271.13 137.75 272.19 136.16 273.22 134.54 274.24 132.88 275.24 131.17 276.22 129.43 277.18 127.65 278.12 125.83 279.04 123.97 279.93 122.06 280.8 120.11 281.65 116.98 282.94 114.62 281.85 113.44 281.3 112.3 280.76 111.19 280.23 110.12 279.71 109.09 279.2 108.09 278.7 107.13 278.21 106.2 277.73 105.3 277.25 104.43 276.79 103.59 276.33 102.78 275.88 102 275.43 101.24 275 100.51 274.56 99.8 274.13 99.11 273.71 98.45 273.3 97.81 272.88 97.19 272.47 96.59 272.06 96 271.66 95.44 271.26 94.89 270.86 94.35 270.46 93.83 270.07 93.32 269.68 92.83 269.28 92.34 268.89 91.87 268.5 89.61 266.6 102.29 245.51 102.29 245.51"/><path class="cls-2" d="M93.26,266,215.57,62.58c-17.37,57.79-10.43,57.29-15.68,90.52q-9.09,55.6-37.11,92.59c-11.66,13.24-24.71,25.76-45.74,34.2-13.14-6-19.1-9.91-23.78-13.89Z"/><polygon class="cls-1" points="121.91 24.09 114.06 24.15 111.29 24.15 108.56 24.12 105.86 24.07 103.2 24 100.58 23.9 97.99 23.78 95.43 23.64 92.91 23.48 90.42 23.29 87.97 23.08 85.56 22.85 83.17 22.6 80.82 22.32 78.5 22.02 76.22 21.71 73.96 21.37 71.74 21.01 69.55 20.63 67.39 20.23 65.27 19.81 63.17 19.37 61.11 18.91 59.07 18.43 57.07 17.94 55.09 17.42 53.15 16.88 51.23 16.33 49.35 15.75 47.49 15.16 45.66 14.55 42.1 13.31 39.91 15.58 38.98 16.54 38.06 17.5 37.13 18.46 36.2 19.42 35.27 20.38 34.34 21.34 33.42 22.3 32.49 23.26 31.56 24.22 30.63 25.18 29.71 26.14 28.78 27.09 26.92 29.01 25.99 29.97 25.07 30.93 24.14 31.89 23.21 32.85 22.28 33.81 21.35 34.77 18.57 37.65 17.64 38.61 16.72 39.56 15.79 40.52 14.86 41.48 13.93 42.44 12.08 44.36 9.87 46.64 12.95 53.86 15.09 59.2 17.04 64.36 18.8 69.35 20.39 74.17 21.81 78.83 23.08 83.34 24.2 87.69 25.19 91.91 26.05 95.97 26.8 99.91 27.45 103.71 28 107.39 28.46 110.96 28.85 114.41 29.17 117.75 29.44 120.99 29.66 124.13 29.85 127.18 30 130.15 30.14 133.03 30.28 135.84 30.42 138.59 30.57 141.26 30.74 143.89 30.95 146.46 31.2 148.98 31.5 151.47 31.88 153.91 32.33 156.32 32.86 158.71 35.21 167.42 41.18 157.55 56.31 132.54 58.83 128.38 76.48 99.2 79 95.03 81.52 90.86 96.65 65.86 99.17 61.69 106.73 49.19 109.25 45.02 116.82 32.51 121.91 24.09 121.91 24.09"/><path class="cls-2" d="M116.9,26.92c-30.38.36-54.54-3.44-74-10.37L13.2,47.24c26.4,60.38,16.05,89.3,23,113Q76.57,93.62,116.9,26.92Z"/><polygon class="cls-1" points="117.51 194.59 121.11 194.5 124.66 194.24 128.16 193.81 131.6 193.21 134.99 192.44 138.31 191.52 141.56 190.45 144.73 189.22 147.83 187.86 150.84 186.35 153.77 184.7 156.6 182.93 159.34 181.02 161.98 179 164.52 176.85 166.95 174.59 169.26 172.22 171.46 169.74 173.53 167.16 175.48 164.49 177.3 161.71 178.98 158.85 180.52 155.91 181.92 152.88 183.18 149.78 184.28 146.61 185.22 143.37 186 140.07 186.61 136.71 187.06 133.29 187.33 129.83 187.42 126.32 187.33 122.81 187.06 119.35 186.61 115.93 186 112.57 185.22 109.27 184.28 106.03 183.18 102.86 181.92 99.77 180.52 96.75 178.98 93.81 177.3 90.95 175.48 88.19 173.53 85.51 171.46 82.94 169.26 80.47 166.94 78.1 164.52 75.85 161.98 73.71 159.34 71.68 156.6 69.78 153.77 68.01 150.84 66.37 147.82 64.87 144.73 63.51 141.55 62.29 138.3 61.22 134.98 60.3 131.6 59.54 128.16 58.94 124.66 58.51 121.11 58.24 117.51 58.16 113.92 58.24 110.37 58.51 106.87 58.94 103.42 59.54 100.04 60.3 96.71 61.22 93.46 62.29 90.28 63.51 87.18 64.87 84.16 66.37 81.23 68.01 78.39 69.78 75.64 71.68 73 73.7 70.46 75.84 68.03 78.1 65.71 80.47 63.51 82.94 61.42 85.51 59.47 88.18 57.65 90.95 55.96 93.8 54.41 96.74 53.01 99.76 51.75 102.86 50.65 106.03 49.7 109.27 48.92 112.57 48.3 115.93 47.85 119.34 47.58 122.81 47.49 126.32 47.58 129.83 47.85 133.29 48.3 136.71 48.92 140.07 49.7 143.37 50.65 146.61 51.75 149.79 53 152.89 54.41 155.91 55.96 158.86 57.65 161.72 59.47 164.49 61.42 167.16 63.5 169.74 65.7 172.22 68.02 174.59 70.46 176.85 73 179 75.64 181.03 78.39 182.93 81.23 184.71 84.16 186.35 87.18 187.86 90.28 189.22 93.46 190.45 96.71 191.52 100.03 192.44 103.42 193.21 106.86 193.81 110.37 194.24 113.92 194.5 117.51 194.59 117.51 194.59"/><path class="cls-2" d="M117.51,191.8c37.07,0,67.07-29.35,67.07-65.48S154.58,61,117.51,61,50.33,90.19,50.33,126.32s30.11,65.48,67.18,65.48Z"/><path class="cls-1" d="M141.69,82.32V132.2a6.2,6.2,0,0,1-.69,3.21c-2.72,5.71-7,8.2-11,11.91L143.07,179a73.66,73.66,0,0,1-9.44,3.62l-9.52-21.08c-.69-.84-1.61-2.93-1.75-1.42v25.15H112.2v-119c11.45-.71,27.1,3,29.49,16ZM122.12,77v63.08c3.6-.32,8.62-5.48,9-9.27V84.12c.11-3.61-1.89-6.88-9-7.12Z"/><path class="cls-1" d="M104.73,165.59l-9.77,0V130l-11.21.17c.8,6.34,6.08,13.53,10,18.17l-5.63,10.17c-11.7-11-14.76-23.23-14.76-33.76,0-19.92,13.56-34.7,31.38-43.29v84.1Zm-20.3-45.32H95.21V99.78c-6.56,5-9.4,12.23-10.78,20.49Z"/><path class="cls-1" d="M106.37,184.22c-29-4.76-51.2-29.55-51.2-59.44,1.31-27,21.91-51.37,51.2-57.71v10.5c-23.54,4.73-39.12,24-39.12,47.21-1.61,25.51,16.8,44.41,39.12,49.05v10.39Z"/><path class="cls-1" d="M149.21,74c29.4,22.38,37.11,66.21,9.8,86.1l0,7.16-9.83,9.19V74Zm10.84,69.18c4.82-7.26,6.8-11,6.8-19.63s-3.36-14.33-6.8-20.44v40.07Z"/></g></g></svg>