<?xml version="1.0" encoding="UTF-8"?>
<svg xmlns="http://www.w3.org/2000/svg" xmlns:xlink="http://www.w3.org/1999/xlink" width="567.2pt" height="655.1pt" viewBox="0 0 567.2 655.1" version="1.1">
<defs>
<clipPath id="clip1">
  <path d="M 12 0 L 555 0 L 555 655.101563 L 12 655.101563 Z M 12 0 "/>
</clipPath>
</defs>
<g id="surface1">
<g clip-path="url(#clip1)" clip-rule="nonzero">
<path style=" stroke:none;fill-rule:evenodd;fill:rgb(100%,84.375%,0%);fill-opacity:1;" d="M 283.652344 655.023438 C 97.59375 533.9375 0.00390625 347.535156 13.691406 109.355469 L 158.53125 -0.03125 C 193.609375 34.105469 237.808594 50.855469 283.652344 51.175781 C 329.488281 50.886719 373.691406 34.144531 408.777344 0.015625 L 553.609375 109.394531 C 567.296875 347.570313 469.710938 533.972656 283.652344 655.023438 Z M 283.652344 655.023438 "/>
</g>
<path style=" stroke:none;fill-rule:evenodd;fill:rgb(0%,37.255859%,65.818787%);fill-opacity:1;" d="M 283.652344 77.125 C 240.179688 77.054688 196.898438 61.339844 157.15625 32.039063 L 38.09375 122.171875 C 26.613281 311.042969 103.519531 504.476563 283.652344 623.015625 C 463.78125 504.421875 540.683594 310.980469 529.203125 122.113281 L 410.144531 31.976563 C 370.410156 61.28125 327.117188 76.996094 283.652344 77.125 Z M 283.652344 77.125 "/>
<path style=" stroke:none;fill-rule:evenodd;fill:rgb(100%,84.375%,0%);fill-opacity:1;" d="M 284.601563 351.300781 L 288.820313 364.445313 L 302.6875 364.445313 L 291.394531 372.613281 L 295.785156 385.710938 L 284.488281 377.75 L 273.421875 385.710938 L 277.695313 372.691406 L 266.335938 364.445313 L 280.351563 364.410156 Z M 284.601563 351.300781 "/>
<path style=" stroke:none;fill-rule:evenodd;fill:rgb(100%,84.375%,0%);fill-opacity:1;" d="M 342.589844 351.300781 L 346.804688 364.445313 L 360.671875 364.445313 L 349.378906 372.613281 L 353.769531 385.710938 L 342.472656 377.75 L 331.40625 385.710938 L 335.675781 372.691406 L 324.320313 364.445313 L 338.339844 364.410156 Z M 342.589844 351.300781 "/>
<path style=" stroke:none;fill-rule:evenodd;fill:rgb(100%,84.375%,0%);fill-opacity:1;" d="M 400.574219 351.300781 L 404.789063 364.445313 L 418.65625 364.445313 L 407.363281 372.613281 L 411.753906 385.710938 L 400.460938 377.75 L 389.394531 385.710938 L 393.664063 372.691406 L 382.304688 364.445313 L 396.320313 364.410156 Z M 400.574219 351.300781 "/>
<path style=" stroke:none;fill-rule:evenodd;fill:rgb(100%,84.375%,0%);fill-opacity:1;" d="M 458.558594 351.300781 L 462.773438 364.445313 L 476.640625 364.445313 L 465.347656 372.613281 L 469.738281 385.710938 L 458.445313 377.75 L 447.378906 385.710938 L 451.648438 372.691406 L 440.289063 364.445313 L 454.304688 364.410156 Z M 458.558594 351.300781 "/>
<path style=" stroke:none;fill-rule:evenodd;fill:rgb(100%,84.375%,0%);fill-opacity:1;" d="M 226.621094 351.300781 L 230.839844 364.445313 L 244.703125 364.445313 L 233.40625 372.613281 L 237.800781 385.710938 L 226.503906 377.75 L 215.4375 385.710938 L 219.710938 372.691406 L 208.347656 364.445313 L 222.367188 364.410156 Z M 226.621094 351.300781 "/>
<path style=" stroke:none;fill-rule:evenodd;fill:rgb(100%,84.375%,0%);fill-opacity:1;" d="M 168.632813 351.300781 L 172.851563 364.445313 L 186.71875 364.445313 L 175.425781 372.613281 L 179.8125 385.710938 L 168.515625 377.75 L 157.449219 385.710938 L 161.722656 372.691406 L 150.363281 364.445313 L 164.382813 364.410156 Z M 168.632813 351.300781 "/>
<path style=" stroke:none;fill-rule:evenodd;fill:rgb(100%,84.375%,0%);fill-opacity:1;" d="M 110.648438 351.300781 L 114.863281 364.445313 L 128.730469 364.445313 L 117.4375 372.613281 L 121.835938 385.710938 L 110.535156 377.75 L 99.464844 385.710938 L 103.738281 372.691406 L 92.378906 364.445313 L 106.394531 364.410156 Z M 110.648438 351.300781 "/>
<path style=" stroke:none;fill-rule:evenodd;fill:rgb(100%,84.375%,0%);fill-opacity:1;" d="M 315.476563 393.179688 L 319.691406 406.320313 L 333.5625 406.320313 L 322.265625 414.492188 L 326.65625 427.589844 L 315.359375 419.625 L 304.296875 427.589844 L 308.566406 414.570313 L 297.203125 406.320313 L 311.222656 406.289063 Z M 315.476563 393.179688 "/>
<path style=" stroke:none;fill-rule:evenodd;fill:rgb(100%,84.375%,0%);fill-opacity:1;" d="M 377.222656 393.179688 L 381.433594 406.320313 L 395.300781 406.320313 L 384.007813 414.492188 L 388.398438 427.589844 L 377.101563 419.625 L 366.039063 427.589844 L 370.308594 414.570313 L 358.949219 406.320313 L 372.964844 406.289063 Z M 377.222656 393.179688 "/>
<path style=" stroke:none;fill-rule:evenodd;fill:rgb(100%,84.375%,0%);fill-opacity:1;" d="M 437.085938 393.179688 L 441.296875 406.320313 L 455.164063 406.320313 L 443.871094 414.492188 L 448.265625 427.589844 L 436.96875 419.625 L 425.902344 427.589844 L 430.171875 414.570313 L 418.8125 406.320313 L 432.835938 406.289063 Z M 437.085938 393.179688 "/>
<path style=" stroke:none;fill-rule:evenodd;fill:rgb(100%,84.375%,0%);fill-opacity:1;" d="M 253.730469 393.179688 L 257.949219 406.320313 L 271.816406 406.320313 L 260.523438 414.492188 L 264.914063 427.589844 L 253.617188 419.625 L 242.546875 427.589844 L 246.820313 414.570313 L 235.464844 406.320313 L 249.476563 406.289063 Z M 253.730469 393.179688 "/>
<path style=" stroke:none;fill-rule:evenodd;fill:rgb(100%,84.375%,0%);fill-opacity:1;" d="M 191.988281 393.179688 L 196.203125 406.320313 L 210.070313 406.320313 L 198.777344 414.492188 L 203.171875 427.589844 L 191.871094 419.625 L 180.804688 427.589844 L 185.078125 414.570313 L 173.71875 406.320313 L 187.738281 406.289063 Z M 191.988281 393.179688 "/>
<path style=" stroke:none;fill-rule:evenodd;fill:rgb(100%,84.375%,0%);fill-opacity:1;" d="M 132.128906 393.179688 L 136.339844 406.320313 L 150.210938 406.320313 L 138.914063 414.492188 L 143.304688 427.589844 L 132.007813 419.625 L 120.941406 427.589844 L 125.214844 414.570313 L 113.855469 406.320313 L 127.871094 406.289063 Z M 132.128906 393.179688 "/>
<path style=" stroke:none;fill-rule:evenodd;fill:rgb(100%,84.375%,0%);fill-opacity:1;" d="M 350.109375 435.054688 L 354.324219 448.199219 L 368.191406 448.199219 L 356.898438 456.371094 L 361.289063 469.464844 L 349.988281 461.503906 L 338.921875 469.464844 L 343.191406 456.445313 L 331.839844 448.199219 L 345.855469 448.167969 Z M 350.109375 435.054688 "/>
<path style=" stroke:none;fill-rule:evenodd;fill:rgb(100%,84.375%,0%);fill-opacity:1;" d="M 413.726563 435.054688 L 417.945313 448.199219 L 431.808594 448.199219 L 420.515625 456.371094 L 424.90625 469.464844 L 413.609375 461.503906 L 402.546875 469.464844 L 406.816406 456.445313 L 395.460938 448.199219 L 409.472656 448.167969 Z M 413.726563 435.054688 "/>
<path style=" stroke:none;fill-rule:evenodd;fill:rgb(100%,84.375%,0%);fill-opacity:1;" d="M 284.601563 435.054688 L 288.820313 448.199219 L 302.6875 448.199219 L 291.394531 456.371094 L 295.785156 469.464844 L 284.488281 461.503906 L 273.421875 469.464844 L 277.695313 456.445313 L 266.335938 448.199219 L 280.351563 448.167969 Z M 284.601563 435.054688 "/>
<path style=" stroke:none;fill-rule:evenodd;fill:rgb(100%,84.375%,0%);fill-opacity:1;" d="M 219.101563 435.054688 L 223.316406 448.199219 L 237.183594 448.199219 L 225.890625 456.371094 L 230.28125 469.464844 L 218.984375 461.503906 L 207.921875 469.464844 L 212.191406 456.445313 L 200.835938 448.199219 L 214.847656 448.167969 Z M 219.101563 435.054688 "/>
<path style=" stroke:none;fill-rule:evenodd;fill:rgb(100%,84.375%,0%);fill-opacity:1;" d="M 155.480469 435.054688 L 159.695313 448.199219 L 173.5625 448.199219 L 162.269531 456.371094 L 166.660156 469.464844 L 155.363281 461.503906 L 144.296875 469.464844 L 148.570313 456.445313 L 137.214844 448.199219 L 151.226563 448.167969 Z M 155.480469 435.054688 "/>
<path style=" stroke:none;fill-rule:evenodd;fill:rgb(100%,84.375%,0%);fill-opacity:1;" d="M 375.34375 478.832031 L 379.558594 491.976563 L 393.421875 491.976563 L 382.132813 500.144531 L 386.523438 513.242188 L 375.222656 505.277344 L 364.160156 513.242188 L 368.429688 500.222656 L 357.074219 491.976563 L 371.089844 491.941406 Z M 375.34375 478.832031 "/>
<path style=" stroke:none;fill-rule:evenodd;fill:rgb(100%,84.375%,0%);fill-opacity:1;" d="M 315.476563 473.195313 L 319.691406 486.339844 L 333.5625 486.339844 L 322.265625 494.507813 L 326.65625 507.601563 L 315.359375 499.640625 L 304.289063 507.601563 L 308.5625 494.585938 L 297.203125 486.339844 L 311.222656 486.304688 Z M 315.476563 473.195313 "/>
<path style=" stroke:none;fill-rule:evenodd;fill:rgb(100%,84.375%,0%);fill-opacity:1;" d="M 253.730469 473.195313 L 257.945313 486.339844 L 271.8125 486.339844 L 260.519531 494.507813 L 264.910156 507.601563 L 253.613281 499.640625 L 242.546875 507.601563 L 246.820313 494.585938 L 235.464844 486.339844 L 249.476563 486.304688 Z M 253.730469 473.195313 "/>
<path style=" stroke:none;fill-rule:evenodd;fill:rgb(100%,84.375%,0%);fill-opacity:1;" d="M 193.867188 478.832031 L 198.085938 491.976563 L 211.949219 491.976563 L 200.65625 500.144531 L 205.046875 513.242188 L 193.753906 505.277344 L 182.683594 513.242188 L 186.960938 500.222656 L 175.597656 491.976563 L 189.613281 491.941406 Z M 193.867188 478.832031 "/>
<path style=" stroke:none;fill-rule:evenodd;fill:rgb(100%,84.375%,0%);fill-opacity:1;" d="M 339.90625 520.691406 L 344.121094 533.839844 L 357.988281 533.839844 L 346.695313 542.003906 L 351.089844 555.097656 L 339.785156 547.140625 L 328.722656 555.097656 L 332.992188 542.078125 L 321.632813 533.839844 L 335.652344 533.804688 Z M 339.90625 520.691406 "/>
<path style=" stroke:none;fill-rule:evenodd;fill:rgb(100%,84.375%,0%);fill-opacity:1;" d="M 284.601563 513.175781 L 288.820313 526.320313 L 302.6875 526.320313 L 291.394531 534.484375 L 295.785156 547.582031 L 284.488281 539.625 L 273.421875 547.582031 L 277.695313 534.5625 L 266.335938 526.320313 L 280.351563 526.289063 Z M 284.601563 513.175781 "/>
<path style=" stroke:none;fill-rule:evenodd;fill:rgb(100%,84.375%,0%);fill-opacity:1;" d="M 229.304688 520.691406 L 233.519531 533.839844 L 247.386719 533.839844 L 236.09375 542.003906 L 240.484375 555.097656 L 229.1875 547.140625 L 218.117188 555.097656 L 222.390625 542.078125 L 211.03125 533.839844 L 225.050781 533.804688 Z M 229.304688 520.691406 "/>
<path style=" stroke:none;fill-rule:evenodd;fill:rgb(100%,84.375%,0%);fill-opacity:1;" d="M 284.601563 563.125 L 288.820313 576.269531 L 302.6875 576.269531 L 291.394531 584.433594 L 295.785156 597.535156 L 284.488281 589.574219 L 273.421875 597.535156 L 277.695313 584.515625 L 266.335938 576.269531 L 280.351563 576.234375 Z M 284.601563 563.125 "/>
<path style=" stroke:none;fill-rule:evenodd;fill:rgb(100%,84.375%,0%);fill-opacity:1;" d="M 253.410156 180.566406 L 257.628906 193.714844 L 271.492188 193.714844 L 260.199219 201.878906 L 264.589844 214.976563 L 253.289063 207.019531 L 242.226563 214.976563 L 246.496094 201.957031 L 235.136719 193.714844 L 249.15625 193.675781 Z M 253.410156 180.566406 "/>
<path style=" stroke:none;fill-rule:evenodd;fill:rgb(100%,84.375%,0%);fill-opacity:1;" d="M 314.078125 180.566406 L 318.296875 193.714844 L 332.160156 193.714844 L 320.867188 201.878906 L 325.261719 214.976563 L 313.964844 207.019531 L 302.894531 214.976563 L 307.171875 201.957031 L 295.808594 193.714844 L 309.824219 193.675781 Z M 314.078125 180.566406 "/>
<path style=" stroke:none;fill-rule:evenodd;fill:rgb(100%,84.375%,0%);fill-opacity:1;" d="M 373.945313 180.566406 L 378.160156 193.714844 L 392.023438 193.714844 L 380.734375 201.878906 L 385.128906 214.976563 L 373.835938 207.019531 L 362.765625 214.976563 L 367.035156 201.957031 L 355.671875 193.714844 L 369.691406 193.675781 Z M 373.945313 180.566406 "/>
<path style=" stroke:none;fill-rule:evenodd;fill:rgb(100%,84.375%,0%);fill-opacity:1;" d="M 431.925781 180.566406 L 436.144531 193.714844 L 450.011719 193.714844 L 438.714844 201.878906 L 443.105469 214.976563 L 431.8125 207.019531 L 420.746094 214.976563 L 425.019531 201.957031 L 413.65625 193.714844 L 427.675781 193.675781 Z M 431.925781 180.566406 "/>
<path style=" stroke:none;fill-rule:evenodd;fill:rgb(100%,84.375%,0%);fill-opacity:1;" d="M 493.671875 180.566406 L 497.890625 193.714844 L 511.753906 193.714844 L 500.464844 201.878906 L 504.851563 214.976563 L 493.558594 207.019531 L 482.492188 214.976563 L 486.765625 201.957031 L 475.402344 193.714844 L 489.421875 193.675781 Z M 493.671875 180.566406 "/>
<path style=" stroke:none;fill-rule:evenodd;fill:rgb(100%,84.375%,0%);fill-opacity:1;" d="M 193.546875 180.566406 L 197.761719 193.714844 L 211.628906 193.714844 L 200.335938 201.878906 L 204.726563 214.976563 L 193.429688 207.019531 L 182.359375 214.976563 L 186.632813 201.957031 L 175.273438 193.714844 L 189.296875 193.675781 Z M 193.546875 180.566406 "/>
<path style=" stroke:none;fill-rule:evenodd;fill:rgb(100%,84.375%,0%);fill-opacity:1;" d="M 135.558594 180.566406 L 139.773438 193.714844 L 153.644531 193.714844 L 142.347656 201.878906 L 146.742188 214.976563 L 135.445313 207.019531 L 124.378906 214.976563 L 128.648438 201.957031 L 117.289063 193.714844 L 131.308594 193.675781 Z M 135.558594 180.566406 "/>
<path style=" stroke:none;fill-rule:evenodd;fill:rgb(100%,84.375%,0%);fill-opacity:1;" d="M 73.816406 180.566406 L 78.03125 193.714844 L 91.898438 193.714844 L 80.605469 201.878906 L 84.996094 214.976563 L 73.703125 207.019531 L 62.632813 214.976563 L 66.90625 201.957031 L 55.546875 193.714844 L 69.5625 193.675781 Z M 73.816406 180.566406 "/>
<path style=" stroke:none;fill-rule:evenodd;fill:rgb(100%,84.375%,0%);fill-opacity:1;" d="M 251.53125 132.246094 L 255.746094 145.390625 L 269.613281 145.390625 L 258.320313 153.558594 L 262.710938 166.65625 L 251.410156 158.695313 L 240.347656 166.65625 L 244.617188 153.636719 L 233.257813 145.390625 L 247.277344 145.359375 Z M 251.53125 132.246094 "/>
<path style=" stroke:none;fill-rule:evenodd;fill:rgb(100%,84.375%,0%);fill-opacity:1;" d="M 315.960938 132.246094 L 320.171875 145.390625 L 334.039063 145.390625 L 322.753906 153.558594 L 327.140625 166.65625 L 315.84375 158.695313 L 304.773438 166.65625 L 309.046875 153.636719 L 297.6875 145.390625 L 311.703125 145.359375 Z M 315.960938 132.246094 "/>
<path style=" stroke:none;fill-rule:evenodd;fill:rgb(100%,84.375%,0%);fill-opacity:1;" d="M 377.171875 132.246094 L 381.382813 145.390625 L 395.246094 145.390625 L 383.960938 153.558594 L 388.34375 166.65625 L 377.050781 158.695313 L 365.984375 166.65625 L 370.257813 153.636719 L 358.894531 145.390625 L 372.914063 145.359375 Z M 377.171875 132.246094 "/>
<path style=" stroke:none;fill-rule:evenodd;fill:rgb(100%,84.375%,0%);fill-opacity:1;" d="M 438.367188 132.246094 L 442.589844 145.390625 L 456.460938 145.390625 L 445.160156 153.558594 L 449.550781 166.65625 L 438.257813 158.695313 L 427.191406 166.65625 L 431.464844 153.636719 L 420.097656 145.390625 L 434.117188 145.359375 Z M 438.367188 132.246094 "/>
<path style=" stroke:none;fill-rule:evenodd;fill:rgb(100%,84.375%,0%);fill-opacity:1;" d="M 501.992188 132.246094 L 506.214844 145.390625 L 520.074219 145.390625 L 508.78125 153.558594 L 513.175781 166.65625 L 501.882813 158.695313 L 490.8125 166.65625 L 495.089844 153.636719 L 483.722656 145.390625 L 497.738281 145.359375 Z M 501.992188 132.246094 "/>
<path style=" stroke:none;fill-rule:evenodd;fill:rgb(100%,84.375%,0%);fill-opacity:1;" d="M 190.324219 132.246094 L 194.539063 145.390625 L 208.40625 145.390625 L 197.109375 153.558594 L 201.503906 166.65625 L 190.210938 158.695313 L 179.140625 166.65625 L 183.410156 153.636719 L 172.050781 145.390625 L 186.070313 145.359375 Z M 190.324219 132.246094 "/>
<path style=" stroke:none;fill-rule:evenodd;fill:rgb(100%,84.375%,0%);fill-opacity:1;" d="M 129.117188 132.246094 L 133.335938 145.390625 L 147.199219 145.390625 L 135.90625 153.558594 L 140.296875 166.65625 L 129.003906 158.695313 L 117.933594 166.65625 L 122.210938 153.636719 L 110.847656 145.390625 L 124.863281 145.359375 Z M 129.117188 132.246094 "/>
<path style=" stroke:none;fill-rule:evenodd;fill:rgb(100%,84.375%,0%);fill-opacity:1;" d="M 65.496094 132.246094 L 69.714844 145.390625 L 83.578125 145.390625 L 72.28125 153.558594 L 76.675781 166.65625 L 65.378906 158.695313 L 54.3125 166.65625 L 58.585938 153.636719 L 47.222656 145.390625 L 61.242188 145.359375 Z M 65.496094 132.246094 "/>
<path style=" stroke:none;fill-rule:evenodd;fill:rgb(100%,84.375%,0%);fill-opacity:1;" d="M 248.039063 87.148438 L 252.253906 100.292969 L 266.121094 100.292969 L 254.828125 108.460938 L 259.21875 121.558594 L 247.925781 113.597656 L 236.855469 121.558594 L 241.128906 108.539063 L 229.769531 100.292969 L 243.789063 100.257813 Z M 248.039063 87.148438 "/>
<path style=" stroke:none;fill-rule:evenodd;fill:rgb(100%,84.375%,0%);fill-opacity:1;" d="M 319.449219 87.148438 L 323.664063 100.292969 L 337.53125 100.292969 L 326.238281 108.460938 L 330.632813 121.558594 L 319.328125 113.597656 L 308.265625 121.558594 L 312.535156 108.539063 L 301.175781 100.292969 L 315.195313 100.257813 Z M 319.449219 87.148438 "/>
<path style=" stroke:none;fill-rule:evenodd;fill:rgb(100%,84.375%,0%);fill-opacity:1;" d="M 390.589844 87.148438 L 394.800781 100.292969 L 408.671875 100.292969 L 397.378906 108.460938 L 401.769531 121.558594 L 390.472656 113.597656 L 379.410156 121.558594 L 383.679688 108.539063 L 372.316406 100.292969 L 386.339844 100.257813 Z M 390.589844 87.148438 "/>
<path style=" stroke:none;fill-rule:evenodd;fill:rgb(100%,84.375%,0%);fill-opacity:1;" d="M 461.992188 87.148438 L 466.214844 100.292969 L 480.078125 100.292969 L 468.78125 108.460938 L 473.175781 121.558594 L 461.882813 113.597656 L 450.816406 121.558594 L 455.089844 108.539063 L 443.722656 100.292969 L 457.742188 100.257813 Z M 461.992188 87.148438 "/>
<path style=" stroke:none;fill-rule:evenodd;fill:rgb(100%,84.375%,0%);fill-opacity:1;" d="M 176.902344 87.148438 L 181.117188 100.292969 L 194.980469 100.292969 L 183.6875 108.460938 L 188.085938 121.558594 L 176.785156 113.597656 L 165.714844 121.558594 L 169.988281 108.539063 L 158.628906 100.292969 L 172.648438 100.257813 Z M 176.902344 87.148438 "/>
<path style=" stroke:none;fill-rule:evenodd;fill:rgb(100%,84.375%,0%);fill-opacity:1;" d="M 105.496094 87.148438 L 109.710938 100.292969 L 123.574219 100.292969 L 112.28125 108.460938 L 116.675781 121.558594 L 105.378906 113.597656 L 94.308594 121.558594 L 98.585938 108.539063 L 87.222656 100.292969 L 101.242188 100.257813 Z M 105.496094 87.148438 "/>
<path style=" stroke:none;fill-rule:evenodd;fill:rgb(100%,84.375%,0%);fill-opacity:1;" d="M 413.136719 50.367188 L 417.351563 63.515625 L 431.21875 63.515625 L 419.925781 71.683594 L 424.316406 84.777344 L 413.023438 76.820313 L 401.960938 84.777344 L 406.226563 71.761719 L 394.867188 63.515625 L 408.882813 63.480469 Z M 413.136719 50.367188 "/>
<path style=" stroke:none;fill-rule:evenodd;fill:rgb(100%,84.375%,0%);fill-opacity:1;" d="M 154.351563 50.367188 L 158.566406 63.515625 L 172.433594 63.515625 L 161.140625 71.683594 L 165.53125 84.777344 L 154.234375 76.820313 L 143.171875 84.777344 L 147.441406 71.761719 L 136.085938 63.515625 L 150.097656 63.480469 Z M 154.351563 50.367188 "/>
<path style=" stroke:none;fill-rule:evenodd;fill:rgb(100%,84.375%,0%);fill-opacity:1;" d="M 172.980469 270.085938 L 140.230469 270.085938 L 140.230469 254.695313 L 122.425781 254.695313 L 122.425781 311.398438 L 140.230469 311.398438 L 140.191406 296.230469 L 172.980469 296.234375 L 172.984375 318.292969 L 155.089844 337.316406 L 107.546875 337.316406 L 89.675781 318.308594 L 89.675781 247.601563 L 107.53125 228.625 L 155.105469 228.625 L 172.984375 247.628906 Z M 172.980469 270.085938 "/>
<path style=" stroke:none;fill-rule:evenodd;fill:rgb(100%,84.375%,0%);fill-opacity:1;" d="M 477.546875 228.625 L 477.628906 254.695313 L 472.128906 254.695313 L 472.15625 321.34375 L 458.210938 337.316406 L 414.421875 337.316406 L 397.046875 321.21875 L 397.085938 292.960938 L 427.90625 292.941406 L 427.941406 311.398438 L 440.46875 311.34375 L 440.519531 254.695313 L 435.035156 254.695313 L 435.035156 228.625 Z M 477.546875 228.625 "/>
<path style=" stroke:none;fill-rule:evenodd;fill:rgb(100%,84.375%,0%);fill-opacity:1;" d="M 230.394531 285.875 L 237.113281 273.027344 L 243.597656 285.878906 Z M 252.222656 306.765625 L 254.132813 311.398438 L 248.921875 311.398438 L 248.960938 337.316406 L 291.09375 337.316406 L 291.09375 311.398438 L 286.492188 311.398438 L 261.921875 254.695313 L 267.496094 254.695313 L 267.46875 228.625 L 206.714844 228.625 L 206.671875 254.695313 L 212.257813 254.695313 L 187.679688 311.398438 L 183.09375 311.398438 L 183.09375 337.316406 L 225.3125 337.316406 L 225.257813 311.398438 L 220.046875 311.398438 L 221.953125 306.765625 Z M 252.222656 306.765625 "/>
<path style=" stroke:none;fill-rule:evenodd;fill:rgb(100%,84.375%,0%);fill-opacity:1;" d="M 352.691406 296.183594 L 352.691406 311.398438 L 339.1875 311.398438 L 339.1875 296.167969 Z M 352.691406 269.65625 L 339.1875 269.640625 L 339.1875 254.695313 L 352.691406 254.695313 L 352.691406 269.726563 Z M 300.054688 228.625 L 368.019531 228.625 L 386.644531 247.367188 L 386.644531 274.476563 L 379.210938 279.96875 L 386.644531 285.28125 L 386.644531 318.148438 L 367.921875 337.316406 L 300.054688 337.316406 L 300.054688 311.398438 L 308.738281 311.398438 L 308.796875 254.664063 L 300.054688 254.695313 Z M 300.054688 228.625 "/>
</g>
</svg>
