<svg id="line" height="512" viewBox="0 0 64 64" width="512" xmlns="http://www.w3.org/2000/svg"><g fill="#c4a2fc"><path d="m35.5 27h-17v4.527a33.14 33.14 0 0 0 .663 6.473h16.337z"/><path d="m62.5 31.527v-4.527h-17v11h16.337a33.14 33.14 0 0 0 .663-6.473z"/><path d="m45.5 47v13.739a33.854 33.854 0 0 0 13.164-13.739z"/><path d="m35.5 47h-13.164a33.854 33.854 0 0 0 13.164 13.739z"/><path d="m43.5 46a1 1 0 0 1 1-1h15.123a33.731 33.731 0 0 0 1.754-5h-16.877a1 1 0 0 1 -1-1v-12h-6v12a1 1 0 0 1 -1 1h-16.877a33.731 33.731 0 0 0 1.754 5h15.123a1 1 0 0 1 1 1v15.782c.862.417 1.74.808 2.644 1.153a1 1 0 0 0 .712 0c.9-.345 1.782-.736 2.644-1.153z"/><path d="m59.5 13h-38a3 3 0 0 0 -3 3v9h44v-9a3 3 0 0 0 -3-3zm-29.05 9-1.95-1.025-1.95 1.025.373-2.171-1.577-1.537 2.179-.317.975-1.975.975 1.975 2.179.317-1.577 1.537zm12 0-1.95-1.025-1.95 1.025.373-2.171-1.577-1.537 2.179-.317.975-1.975.975 1.975 2.179.317-1.577 1.537zm12 0-1.95-1.025-1.95 1.025.373-2.171-1.577-1.537 2.179-.317.975-1.975.975 1.975 2.179.317-1.577 1.537z"/></g><path d="m26.5 1a25 25 0 1 0 19.761 40.286.965.965 0 0 0 .093-.118 24.982 24.982 0 0 0 -19.854-40.168zm22.844 22.361-4.549-3.3 1.735-5.341a22.825 22.825 0 0 1 2.814 8.641zm-4.211-10.82-2.307 7.1-8.542 2.779-6.784-4.929v-8.982l6.054-4.4a23.083 23.083 0 0 1 11.579 8.432zm-12.2 11.369-2.457 7.562h-7.952l-2.457-7.562 6.433-4.674zm-6.433-20.91a23.026 23.026 0 0 1 4.555.455l-4.555 3.309-4.555-3.309a23.026 23.026 0 0 1 4.555-.455zm-7.054 1.111 6.054 4.4v8.982l-6.784 4.927-8.542-2.776-2.307-7.1a23.083 23.083 0 0 1 11.579-8.433zm-12.976 10.604 1.735 5.341-4.549 3.305a22.825 22.825 0 0 1 2.814-8.646zm1.47 24.847a22.872 22.872 0 0 1 -4.44-13.562c0-.019 0-.037 0-.055l6.055-4.4 8.545 2.777 2.589 7.978-5.279 7.262zm1.643 2h5.61l1.737 5.344a23.1 23.1 0 0 1 -7.347-5.344zm24.077 6.291a22.921 22.921 0 0 1 -14.32 0l-2.312-7.115 5.28-7.266h8.384l5.28 7.266zm2.41-.947 1.737-5.344h5.61a23.1 23.1 0 0 1 -7.347 5.344zm8.99-7.344h-7.47l-5.279-7.262 2.589-7.978 8.542-2.776 6.055 4.4v.055a22.872 22.872 0 0 1 -4.437 13.561z" fill="#151a6a"/></svg>